<svg width="276" height="240" viewBox="0 0 276 240" fill="none" xmlns="http://www.w3.org/2000/svg">
<path d="M275.28 0.73619L245.28 55.508L245.139 55.7676H109.545L109.403 55.508L79.4033 0.73619L79 0H275.685L275.28 0.73619Z" fill="#06B6D4"/>
<path d="M182.681 68.9711L210.681 119.764L210.809 120L210.68 120.237L145.68 239.739L145.538 240H79L79.4004 239.265L144.5 120L116.8 69.4438L116.402 68.7095H182.538L182.681 68.9711Z" fill="#06B6D4"/>
<path d="M66.2793 0.260633L131.279 119.763L131.408 120L131.279 120.237L66.2793 239.739L66.1377 240H0L0.400391 239.265L65.2705 120L0.400391 0.735218L0 0H66.1377L66.2793 0.260633Z" fill="#0F172A"/>
</svg>
